<svg 
 xmlns="http://www.w3.org/2000/svg"
 xmlns:xlink="http://www.w3.org/1999/xlink"
 width="74px" height="74px">
<path fill-rule="evenodd"  opacity="0.251" fill="rgb(255, 255, 255)"
 d="M36.999,0.1 C57.434,0.1 73.999,16.564 73.999,36.998 C73.999,57.433 57.434,73.999 36.999,73.999 C16.565,73.999 0.0,57.433 0.0,36.998 C0.0,16.564 16.565,0.1 36.999,0.1 Z"/>
<path fill-rule="evenodd"  fill="rgb(244, 245, 249)"
 d="M36.999,4.999 C54.672,4.999 68.999,19.325 68.999,36.998 C68.999,54.671 54.672,68.998 36.999,68.998 C19.326,68.998 4.999,54.671 4.999,36.998 C4.999,19.325 19.326,4.999 36.999,4.999 Z"/>
<path fill-rule="evenodd"  fill="rgb(231, 76, 60)"
 d="M48.889,39.295 L46.380,35.521 C46.261,35.342 46.62,35.234 45.850,35.234 C45.637,35.234 45.438,35.342 45.319,35.521 L42.810,39.295 C42.676,39.496 42.663,39.755 42.774,39.970 C42.885,40.184 43.103,40.318 43.341,40.318 L44.578,40.318 C44.44,42.565 41.830,44.365 39.496,44.930 L39.496,30.465 L41.490,30.465 C42.41,30.465 42.488,30.10 42.488,29.448 C42.488,28.885 42.41,28.430 41.490,28.430 L40.463,28.430 C41.181,27.750 41.639,26.789 41.639,25.712 C41.639,23.664 40.6,21.997 37.999,21.997 C35.992,21.997 34.360,23.664 34.360,25.712 C34.360,26.789 34.817,27.750 35.536,28.430 L34.509,28.430 C33.958,28.430 33.511,28.885 33.511,29.448 C33.511,30.10 33.958,30.465 34.509,30.465 L36.504,30.465 L36.504,44.930 C34.168,44.365 31.954,42.565 31.420,40.318 L32.658,40.318 C32.896,40.318 33.114,40.184 33.225,39.970 C33.336,39.755 33.322,39.496 33.189,39.295 L30.680,35.521 C30.561,35.342 30.362,35.234 30.149,35.234 C29.936,35.234 29.737,35.342 29.618,35.521 L27.109,39.295 C26.976,39.496 26.962,39.755 27.73,39.970 C27.184,40.184 27.402,40.318 27.640,40.318 L28.990,40.318 C29.492,43.812 32.445,47.377 35.769,48.556 L35.521,48.867 C35.343,49.88 35.328,49.403 35.483,49.641 L37.464,52.704 C37.583,52.887 37.784,52.998 37.999,52.998 C38.215,52.998 38.416,52.887 38.535,52.704 L40.516,49.641 C40.671,49.403 40.655,49.88 40.478,48.868 L40.229,48.556 C43.554,47.377 46.506,43.812 47.9,40.318 L48.359,40.318 C48.596,40.318 48.814,40.184 48.925,39.970 C49.37,39.755 49.23,39.496 48.889,39.295 ZM37.999,24.34 C38.906,24.34 39.644,24.786 39.644,25.712 C39.644,26.639 38.906,27.391 37.999,27.391 C37.92,27.391 36.355,26.639 36.355,25.712 C36.355,24.786 37.92,24.34 37.999,24.34 Z"/>
</svg>
