<svg width="141" height="52" viewBox="0 0 141 52" fill="none" xmlns="http://www.w3.org/2000/svg">
<path fill-rule="evenodd" clip-rule="evenodd" d="M52 0H0V52H52V0ZM25.8564 13.873H17.4141V41H27.5635C29.6169 41 31.3857 40.6908 32.8701 40.0723C34.3669 39.4414 35.5173 38.5384 36.3213 37.3633C37.1253 36.1882 37.5273 34.778 37.5273 33.1328C37.5273 31.7103 37.3047 30.5723 36.8594 29.7188C36.4264 28.8529 35.845 28.1973 35.1152 27.752C34.3854 27.2943 33.569 26.9727 32.666 26.7871V26.6016C33.5566 26.4408 34.3112 26.0944 34.9297 25.5625C35.5482 25.0306 36.0182 24.3503 36.3398 23.5215C36.6738 22.6927 36.8408 21.765 36.8408 20.7383C36.8408 18.1901 35.9131 16.4089 34.0576 15.3945C32.2021 14.3802 29.4684 13.873 25.8564 13.873ZM26.5059 24.6162H23.166V18.5859H26.1904C27.8356 18.5859 29.0355 18.8148 29.79 19.2725C30.557 19.7178 30.9404 20.46 30.9404 21.499C30.9404 22.5257 30.6188 23.305 29.9756 23.8369C29.3324 24.3564 28.1758 24.6162 26.5059 24.6162ZM23.166 36.25V29.1807H26.7285C27.9531 29.1807 28.9118 29.3229 29.6045 29.6074C30.3096 29.8919 30.8105 30.2878 31.1074 30.7949C31.4043 31.3021 31.5527 31.8896 31.5527 32.5576C31.5527 33.6833 31.2126 34.5801 30.5322 35.248C29.8519 35.916 28.6458 36.25 26.9141 36.25H23.166Z" fill="white"/>
<path d="M65.8223 41V13.873H67.7334V41H65.8223ZM95.1387 41H93.1904L77.1592 17.0088H77.0664C77.0911 17.6768 77.1097 18.3571 77.1221 19.0498C77.1468 19.7301 77.1654 20.4352 77.1777 21.165C77.2025 21.8825 77.2148 22.6247 77.2148 23.3916V41H75.3965V13.873H77.3633L93.3389 37.79H93.4316C93.4193 37.2458 93.4007 36.6149 93.376 35.8975C93.3636 35.18 93.3451 34.444 93.3203 33.6895C93.3079 32.9349 93.3018 32.2236 93.3018 31.5557V13.873H95.1387V41ZM125.643 27.3994C125.643 29.4652 125.389 31.3516 124.882 33.0586C124.375 34.7656 123.614 36.2376 122.6 37.4746C121.585 38.7116 120.317 39.6702 118.796 40.3506C117.287 41.0309 115.524 41.3711 113.508 41.3711C111.479 41.3711 109.704 41.0309 108.183 40.3506C106.661 39.6702 105.393 38.7116 104.379 37.4746C103.377 36.2253 102.622 34.7471 102.115 33.04C101.608 31.3206 101.354 29.4281 101.354 27.3623C101.354 24.6162 101.818 22.1979 102.746 20.1074C103.686 18.0169 105.065 16.3841 106.884 15.209C108.715 14.0339 110.972 13.4463 113.656 13.4463C116.229 13.4463 118.406 14.0091 120.188 15.1348C121.981 16.248 123.336 17.8499 124.251 19.9404C125.179 22.0186 125.643 24.5049 125.643 27.3994ZM103.358 27.3809C103.358 29.8053 103.723 31.9453 104.453 33.8008C105.183 35.6439 106.302 37.085 107.812 38.124C109.321 39.1631 111.226 39.6826 113.526 39.6826C115.852 39.6826 117.763 39.1693 119.26 38.1426C120.757 37.1159 121.864 35.681 122.581 33.8379C123.299 31.9948 123.657 29.8486 123.657 27.3994C123.657 23.5277 122.81 20.5218 121.115 18.3818C119.433 16.2419 116.947 15.1719 113.656 15.1719C111.343 15.1719 109.42 15.6852 107.886 16.7119C106.364 17.7386 105.226 19.1673 104.472 20.998C103.729 22.8288 103.358 24.9564 103.358 27.3809Z" fill="#F1EBE7"/>
<rect x="1.5" y="1.5" width="138" height="49" stroke="white" stroke-width="3"/>
</svg>
