<svg width="46" height="46" viewBox="0 0 46 46" fill="none" xmlns="http://www.w3.org/2000/svg">
<path fill-rule="evenodd" clip-rule="evenodd" d="M2 0C0.895431 0 0 0.89543 0 2V44C0 45.1046 0.89543 46 2 46H44C45.1046 46 46 45.1046 46 44V2C46 0.895431 45.1046 0 44 0H2ZM27.4937 15.8435C27.8286 15.5185 27.996 15.0918 27.996 14.6654C27.996 14.2383 27.8299 13.8112 27.4978 13.4883C26.8281 12.8372 25.7433 12.8372 25.0737 13.4883L16.5022 21.8216C15.8326 22.4727 15.8326 23.5273 16.5022 24.1784L25.0737 32.5117C25.7433 33.1628 26.8281 33.1628 27.4978 32.5117C28.1674 31.8607 28.1674 30.806 27.4978 30.1549L20.1371 22.9987L27.4937 15.8435Z" fill="#999999" fill-opacity="0.7"/>
</svg>
