<svg 
 xmlns="http://www.w3.org/2000/svg"
 xmlns:xlink="http://www.w3.org/1999/xlink"
 width="73px" height="73px">
<path fill-rule="evenodd"  opacity="0.251" fill="rgb(255, 255, 255)"
 d="M36.499,0.573 C56.658,0.573 72.999,16.785 72.999,36.786 C72.999,56.785 56.658,72.998 36.499,72.998 C16.341,72.998 0.0,56.785 0.0,36.786 C0.0,16.785 16.341,0.573 36.499,0.573 Z"/>
<path fill-rule="evenodd"  fill="rgb(244, 245, 249)"
 d="M36.999,4.998 C54.672,4.998 68.999,19.325 68.999,36.998 C68.999,54.671 54.672,68.998 36.999,68.998 C19.326,68.998 4.999,54.671 4.999,36.998 C4.999,19.325 19.326,4.998 36.999,4.998 Z"/>
<path fill-rule="evenodd"  fill="rgb(231, 76, 60)"
 d="M45.648,47.999 L27.351,47.999 C25.510,47.999 23.999,46.440 23.999,44.576 L23.999,33.596 C23.999,31.731 25.510,30.200 27.351,30.200 L29.782,30.187 L32.378,26.374 C32.530,26.151 32.777,25.998 33.52,25.998 L39.824,25.998 C40.98,25.998 40.359,26.151 40.510,26.388 L43.24,30.187 L45.648,30.200 C47.488,30.200 48.999,31.731 48.999,33.596 L48.999,44.576 C48.999,46.440 47.488,47.999 45.648,47.999 ZM47.337,44.576 L47.337,33.596 C47.337,32.650 46.568,31.871 45.634,31.871 L42.557,31.843 C42.296,31.843 42.35,31.690 41.884,31.467 L39.384,27.681 L33.491,27.681 L30.895,31.495 C30.744,31.718 30.497,31.870 30.222,31.870 L27.351,31.870 C26.417,31.870 25.648,32.650 25.648,33.596 L25.648,44.576 C25.648,45.521 26.417,46.329 27.351,46.329 L45.648,46.329 C46.582,46.329 47.351,45.521 47.351,44.576 L47.337,44.576 ZM44.384,35.808 C43.752,35.808 43.244,35.294 43.244,34.654 C43.244,34.13 43.752,33.499 44.384,33.499 C45.16,33.499 45.524,34.13 45.524,34.654 C45.524,35.294 45.16,35.808 44.384,35.808 ZM44.384,34.139 C44.109,34.139 43.876,34.376 43.876,34.654 C43.876,34.932 44.95,35.169 44.384,35.169 C44.672,35.169 44.892,34.932 44.892,34.654 C44.892,34.376 44.659,34.139 44.384,34.139 ZM44.384,34.974 C44.209,34.974 44.68,34.830 44.68,34.654 C44.68,34.477 44.209,34.333 44.384,34.333 C44.559,34.333 44.700,34.477 44.700,34.654 C44.700,34.830 44.559,34.974 44.384,34.974 ZM36.568,44.32 C33.354,44.32 30.730,41.375 30.730,38.119 C30.730,34.863 33.340,32.205 36.568,32.205 C39.782,32.205 42.406,34.863 42.406,38.119 C42.406,41.375 39.782,44.32 36.568,44.32 ZM36.568,33.875 C34.260,33.875 32.378,35.781 32.378,38.119 C32.378,40.456 34.260,42.363 36.568,42.363 C38.876,42.363 40.758,40.456 40.758,38.119 C40.758,35.781 38.876,33.875 36.568,33.875 Z"/>
</svg>
