<svg 
 xmlns="http://www.w3.org/2000/svg"
 xmlns:xlink="http://www.w3.org/1999/xlink"
 width="73px" height="74px">
<path fill-rule="evenodd"  opacity="0.251" fill="rgb(255, 255, 255)"
 d="M36.499,0.662 C56.658,0.662 72.999,16.875 72.999,36.874 C72.999,56.874 56.658,73.87 36.499,73.87 C16.341,73.87 0.0,56.874 0.0,36.874 C0.0,16.875 16.341,0.662 36.499,0.662 Z"/>
<path fill-rule="evenodd"  fill="rgb(244, 245, 249)"
 d="M36.999,4.998 C54.672,4.998 68.999,19.325 68.999,36.998 C68.999,54.672 54.672,68.998 36.999,68.998 C19.326,68.998 4.999,54.672 4.999,36.998 C4.999,19.325 19.326,4.998 36.999,4.998 Z"/>
<path fill-rule="evenodd"  fill="rgb(231, 76, 60)"
 d="M39.396,23.998 C38.883,23.998 38.371,24.103 37.936,24.313 L22.773,31.626 C22.339,31.836 22.1,32.180 22.1,32.624 C22.1,33.69 22.339,33.413 22.773,33.622 L31.302,37.737 C31.366,37.767 31.436,37.782 31.506,37.781 L40.35,37.629 C40.101,37.627 40.165,37.612 40.223,37.584 L52.227,31.794 C52.662,31.585 52.999,31.241 52.999,30.796 C52.999,30.351 52.662,30.8 52.227,29.798 L40.855,24.313 C40.420,24.103 39.908,23.998 39.396,23.998 ZM39.396,24.899 C39.797,24.899 40.198,24.963 40.463,25.91 L51.835,30.575 C52.101,30.704 52.113,30.801 52.113,30.796 C52.113,30.791 52.101,30.888 51.835,31.17 L40.27,36.712 L35.801,34.673 C35.734,34.641 35.660,34.626 35.586,34.629 C35.525,34.631 35.464,34.646 35.409,34.673 L31.182,36.712 L23.165,32.845 C22.900,32.717 22.887,32.620 22.887,32.624 C22.887,32.629 22.900,32.532 23.165,32.403 L38.328,25.91 C38.593,24.962 38.995,24.899 39.396,24.899 ZM40.650,26.922 C40.528,26.925 40.431,27.24 40.435,27.144 C40.437,27.225 40.486,27.298 40.561,27.334 L46.879,30.381 C46.988,30.437 47.121,30.396 47.178,30.289 C47.235,30.184 47.194,30.53 47.85,29.997 C47.82,29.995 47.78,29.994 47.75,29.992 L40.757,26.945 C40.724,26.929 40.687,26.920 40.650,26.922 ZM37.491,28.445 C37.369,28.449 37.273,28.548 37.276,28.668 C37.279,28.749 37.327,28.822 37.402,28.857 L43.720,31.904 C43.828,31.960 43.962,31.920 44.19,31.814 C44.76,31.708 44.34,31.577 43.926,31.521 C43.923,31.519 43.919,31.518 43.916,31.516 L37.598,28.469 C37.565,28.452 37.528,28.444 37.491,28.445 ZM34.332,29.968 C34.210,29.972 34.114,30.72 34.117,30.192 C34.120,30.273 34.168,30.345 34.243,30.381 L40.561,33.428 C40.671,33.481 40.804,33.436 40.858,33.330 C40.912,33.222 40.867,33.92 40.757,33.40 L34.439,29.992 C34.406,29.976 34.369,29.968 34.332,29.968 ZM28.873,30.121 C28.838,30.121 28.804,30.129 28.773,30.145 L24.35,32.430 C23.925,32.483 23.880,32.613 23.934,32.720 C23.955,32.763 23.991,32.798 24.35,32.819 L26.246,33.885 C26.354,33.941 26.488,33.900 26.545,33.794 C26.602,33.688 26.560,33.558 26.452,33.502 C26.449,33.500 26.445,33.498 26.442,33.497 L24.634,32.624 L28.969,30.534 C29.79,30.482 29.126,30.353 29.74,30.245 C29.37,30.169 28.959,30.120 28.873,30.121 ZM35.605,35.545 L38.194,36.795 L32.816,36.891 L35.605,35.545 ZM52.380,35.599 C52.295,35.599 52.212,35.618 52.136,35.655 L35.421,43.602 L22.789,37.395 C22.526,37.261 22.201,37.363 22.65,37.620 C21.929,37.879 22.32,38.196 22.296,38.330 C22.299,38.332 22.303,38.333 22.307,38.336 L35.176,44.659 C35.325,44.733 35.501,44.734 35.652,44.662 L52.606,36.603 C52.875,36.478 52.991,36.166 52.865,35.902 C52.777,35.718 52.588,35.599 52.380,35.599 ZM40.728,39.809 C40.685,39.809 40.644,39.819 40.606,39.839 L35.351,42.411 L30.632,40.50 C30.500,39.984 30.338,40.35 30.271,40.165 C30.203,40.294 30.256,40.453 30.387,40.519 L35.227,42.940 C35.303,42.978 35.393,42.978 35.469,42.941 L40.847,40.309 C40.980,40.246 41.36,40.89 40.972,39.958 C40.927,39.867 40.832,39.808 40.728,39.809 ZM52.380,40.850 C52.295,40.848 52.212,40.868 52.136,40.906 L35.421,48.851 L22.789,42.644 C22.527,42.508 22.202,42.606 22.63,42.863 C21.923,43.119 22.23,43.438 22.286,43.575 C22.293,43.578 22.300,43.582 22.307,43.585 L35.176,49.909 C35.325,49.981 35.501,49.984 35.652,49.911 L52.606,41.851 C52.875,41.729 52.991,41.415 52.865,41.152 C52.777,40.967 52.588,40.850 52.380,40.850 ZM40.728,45.59 C40.685,45.59 40.644,45.69 40.606,45.88 L35.351,47.660 L30.632,45.300 C30.501,45.232 30.338,45.281 30.269,45.408 C30.199,45.538 30.249,45.696 30.380,45.765 C30.383,45.766 30.385,45.767 30.388,45.768 L35.227,48.189 C35.303,48.227 35.393,48.228 35.470,48.190 L40.847,45.558 C40.981,45.496 41.36,45.338 40.972,45.208 C40.927,45.115 40.832,45.58 40.728,45.59 Z"/>
</svg>
