<svg width="73" height="74" viewBox="0 0 73 74" fill="none" xmlns="http://www.w3.org/2000/svg">
<path opacity="0.251" fill-rule="evenodd" clip-rule="evenodd" d="M36.499 0.662003C56.658 0.662003 72.999 16.875 72.999 36.874C72.999 56.874 56.658 73.87 36.499 73.87C16.341 73.87 0 56.874 0 36.874C0 16.875 16.341 0.662003 36.499 0.662003Z" fill="white"/>
<path fill-rule="evenodd" clip-rule="evenodd" d="M36.999 4.998C54.672 4.998 68.999 19.325 68.999 36.998C68.999 54.672 54.672 68.998 36.999 68.998C19.326 68.998 4.99899 54.672 4.99899 36.998C4.99899 19.325 19.326 4.998 36.999 4.998Z" fill="#F4F5F9"/>
<path fill-rule="evenodd" clip-rule="evenodd" d="M39.396 23.998C38.883 23.998 38.371 24.103 37.936 24.313L22.773 31.626C22.339 31.836 22.1 32.18 22.1 32.624C22.1 33.69 22.339 33.413 22.773 33.622L31.302 37.737C31.366 37.767 31.436 37.782 31.506 37.781L40.35 37.629C40.101 37.627 40.165 37.612 40.223 37.584L52.227 31.794C52.662 31.585 52.999 31.241 52.999 30.796C52.999 30.351 52.662 30.8 52.227 29.798L40.855 24.313C40.42 24.103 39.908 23.998 39.396 23.998ZM39.396 24.899C39.797 24.899 40.198 24.963 40.463 25.91L51.835 30.575C52.101 30.704 52.113 30.801 52.113 30.796C52.113 30.791 52.101 30.888 51.835 31.17L40.27 36.712L35.801 34.673C35.734 34.641 35.66 34.626 35.586 34.629C35.525 34.631 35.464 34.646 35.409 34.673L31.182 36.712L23.165 32.845C22.9 32.717 22.887 32.62 22.887 32.624C22.887 32.629 22.9 32.532 23.165 32.403L38.328 25.91C38.593 24.962 38.995 24.899 39.396 24.899ZM40.65 26.922C40.528 26.925 40.431 27.24 40.435 27.144C40.437 27.225 40.486 27.298 40.561 27.334L46.879 30.381C46.988 30.437 47.121 30.396 47.178 30.289C47.235 30.184 47.194 30.53 47.85 29.997C47.82 29.995 47.78 29.994 47.75 29.992L40.757 26.945C40.724 26.929 40.687 26.92 40.65 26.922ZM37.491 28.445C37.369 28.449 37.273 28.548 37.276 28.668C37.279 28.749 37.327 28.822 37.402 28.857L43.72 31.904C43.828 31.96 43.962 31.92 44.19 31.814C44.76 31.708 44.34 31.577 43.926 31.521C43.923 31.519 43.919 31.518 43.916 31.516L37.598 28.469C37.565 28.452 37.528 28.444 37.491 28.445ZM34.332 29.968C34.21 29.972 34.114 30.72 34.117 30.192C34.12 30.273 34.168 30.345 34.243 30.381L40.561 33.428C40.671 33.481 40.804 33.436 40.858 33.33C40.912 33.222 40.867 33.92 40.757 33.4L34.439 29.992C34.406 29.976 34.369 29.968 34.332 29.968ZM28.873 30.121C28.838 30.121 28.804 30.129 28.773 30.145L24.35 32.43C23.925 32.483 23.88 32.613 23.934 32.72C23.955 32.763 23.991 32.798 24.35 32.819L26.246 33.885C26.354 33.941 26.488 33.9 26.545 33.794C26.602 33.688 26.56 33.558 26.452 33.502C26.449 33.5 26.445 33.498 26.442 33.497L24.634 32.624L28.969 30.534C29.79 30.482 29.126 30.353 29.74 30.245C29.37 30.169 28.959 30.12 28.873 30.121ZM35.605 35.545L38.194 36.795L32.816 36.891L35.605 35.545ZM52.38 35.599C52.295 35.599 52.212 35.618 52.136 35.655L35.421 43.602L22.789 37.395C22.526 37.261 22.201 37.363 22.65 37.62C21.929 37.879 22.32 38.196 22.296 38.33C22.299 38.332 22.303 38.333 22.307 38.336L35.176 44.659C35.325 44.733 35.501 44.734 35.652 44.662L52.606 36.603C52.875 36.478 52.991 36.166 52.865 35.902C52.777 35.718 52.588 35.599 52.38 35.599ZM40.728 39.809C40.685 39.809 40.644 39.819 40.606 39.839L35.351 42.411L30.632 40.5C30.5 39.984 30.338 40.35 30.271 40.165C30.203 40.294 30.256 40.453 30.387 40.519L35.227 42.94C35.303 42.978 35.393 42.978 35.469 42.941L40.847 40.309C40.98 40.246 41.36 40.89 40.972 39.958C40.927 39.867 40.832 39.808 40.728 39.809ZM52.38 40.85C52.295 40.848 52.212 40.868 52.136 40.906L35.421 48.851L22.789 42.644C22.527 42.508 22.202 42.606 22.63 42.863C21.923 43.119 22.23 43.438 22.286 43.575C22.293 43.578 22.3 43.582 22.307 43.585L35.176 49.909C35.325 49.981 35.501 49.984 35.652 49.911L52.606 41.851C52.875 41.729 52.991 41.415 52.865 41.152C52.777 40.967 52.588 40.85 52.38 40.85ZM40.728 45.59C40.685 45.59 40.644 45.69 40.606 45.88L35.351 47.66L30.632 45.3C30.501 45.232 30.338 45.281 30.269 45.408C30.199 45.538 30.249 45.696 30.38 45.765C30.383 45.766 30.385 45.767 30.388 45.768L35.227 48.189C35.303 48.227 35.393 48.228 35.47 48.19L40.847 45.558C40.981 45.496 41.36 45.338 40.972 45.208C40.927 45.115 40.832 45.58 40.728 45.59Z" fill="#E74C3C"/>
</svg>
