<svg width="62" height="62" viewBox="0 0 62 62" fill="none" xmlns="http://www.w3.org/2000/svg">
<g clip-path="url(#clip0_19_6)">
<g filter="url(#filter0_d_19_6)">
<path fill-rule="evenodd" clip-rule="evenodd" d="M30.499 0.997986C45.135 0.997986 56.999 12.863 56.999 27.498C56.999 42.133 45.135 53.999 30.499 53.999C15.864 53.999 3.999 42.133 3.999 27.498C3.999 12.863 15.864 0.997986 30.499 0.997986Z" fill="#E74C3C"/>
</g>
<path d="M35.8342 30.9973C35.5357 30.9973 35.2371 30.8857 35.0096 30.6625L30.0009 25.758L24.9915 30.6652C24.5358 31.1116 23.7975 31.1116 23.3418 30.6652C22.8861 30.2188 22.8861 29.4955 23.3418 29.0491L29.1751 23.3348C29.6309 22.8884 30.3691 22.8884 30.8249 23.3348L36.6582 29.0491C37.1139 29.4955 37.1139 30.2188 36.6582 30.6652C36.4322 30.8866 36.1332 30.9973 35.8342 30.9973Z" fill="white"/>
</g>
<defs>
<filter id="filter0_d_19_6" x="-0.473" y="-0.474014" width="61.944" height="61.945" filterUnits="userSpaceOnUse" color-interpolation-filters="sRGB">
<feFlood flood-opacity="0" result="BackgroundImageFix"/>
<feColorMatrix in="SourceAlpha" type="matrix" values="0 0 0 0 0 0 0 0 0 0 0 0 0 0 0 0 0 0 127 0" result="hardAlpha"/>
<feOffset dy="3"/>
<feGaussianBlur stdDeviation="2.236"/>
<feColorMatrix type="matrix" values="0 0 0 0 0 0 0 0 0 0 0 0 0 0 0 0 0 0 1 0"/>
<feBlend mode="normal" in2="BackgroundImageFix" result="effect1_dropShadow_19_6"/>
<feBlend mode="normal" in="SourceGraphic" in2="effect1_dropShadow_19_6" result="shape"/>
</filter>
<clipPath id="clip0_19_6">
<rect width="62" height="62" fill="white"/>
</clipPath>
</defs>
</svg>
