<svg 
 xmlns="http://www.w3.org/2000/svg"
 xmlns:xlink="http://www.w3.org/1999/xlink"
 width="73px" height="73px">
<path fill-rule="evenodd"  opacity="0.251" fill="rgb(255, 255, 255)"
 d="M36.499,0.0 C56.658,0.0 72.999,16.211 72.999,36.211 C72.999,56.211 56.658,72.424 36.499,72.424 C16.341,72.424 0.0,56.211 0.0,36.211 C0.0,16.211 16.341,0.0 36.499,0.0 Z"/>
<path fill-rule="evenodd"  fill="rgb(244, 245, 249)"
 d="M36.999,3.999 C54.672,3.999 68.999,18.325 68.999,35.998 C68.999,53.671 54.672,67.998 36.999,67.998 C19.326,67.998 4.999,53.671 4.999,35.998 C4.999,18.325 19.326,3.999 36.999,3.999 Z"/>
<path fill-rule="evenodd"  fill="rgb(231, 76, 60)"
 d="M49.961,43.891 L49.219,43.891 L49.219,44.39 C49.219,44.281 49.20,44.478 48.774,44.478 C48.528,44.478 48.329,44.281 48.329,44.39 L48.329,43.891 L47.439,43.891 L47.439,44.39 C47.439,44.281 47.240,44.478 46.994,44.478 C46.748,44.478 46.549,44.281 46.549,44.39 L46.549,43.891 L45.659,43.891 L45.659,44.39 C45.659,44.281 45.459,44.478 45.214,44.478 C44.968,44.478 44.769,44.281 44.769,44.39 L44.769,43.891 L25.38,43.891 C24.465,43.891 23.999,43.431 23.999,42.865 L23.999,27.26 C23.999,26.459 24.465,25.998 25.38,25.998 L49.961,25.998 C50.533,25.998 50.999,26.459 50.999,27.26 L50.999,42.865 C50.999,43.431 50.533,43.891 49.961,43.891 ZM50.109,27.26 C50.109,26.946 50.41,26.878 49.961,26.878 L25.38,26.878 C24.957,26.878 24.889,26.946 24.889,27.26 L24.889,42.865 C24.889,42.944 24.957,43.12 25.38,43.12 L49.961,43.12 C50.41,43.12 50.109,42.944 50.109,42.865 L50.109,27.26 ZM48.774,42.132 L26.225,42.132 C25.979,42.132 25.780,41.935 25.780,41.691 L25.780,29.959 C25.780,29.715 25.979,29.519 26.225,29.519 C26.470,29.519 26.670,29.715 26.670,29.959 L26.670,41.252 L48.329,41.252 L48.329,39.345 C48.329,39.102 48.528,38.905 48.774,38.905 C49.20,38.905 49.219,39.102 49.219,39.345 L49.219,41.691 C49.219,41.935 49.20,42.132 48.774,42.132 ZM48.774,38.25 C48.528,38.25 48.329,37.828 48.329,37.585 L48.329,28.639 L26.225,28.639 C25.979,28.639 25.780,28.442 25.780,28.198 C25.780,27.955 25.979,27.759 26.225,27.759 L48.774,27.759 C49.20,27.759 49.219,27.955 49.219,28.198 L49.219,37.585 C49.219,37.828 49.20,38.25 48.774,38.25 ZM30.378,47.119 L35.571,47.119 L35.571,45.211 C35.571,44.969 35.770,44.772 36.16,44.772 C36.262,44.772 36.461,44.969 36.461,45.211 L36.461,47.119 L38.538,47.119 L38.538,45.211 C38.538,44.969 38.737,44.772 38.983,44.772 C39.229,44.772 39.428,44.969 39.428,45.211 L39.428,47.119 L44.620,47.119 C44.866,47.119 45.65,47.315 45.65,47.558 C45.65,47.801 44.866,47.999 44.620,47.999 L30.378,47.999 C30.133,47.999 29.933,47.801 29.933,47.558 C29.933,47.315 30.133,47.119 30.378,47.119 Z"/>
</svg>
