<svg width="20" height="18" viewBox="0 0 20 18" fill="none" xmlns="http://www.w3.org/2000/svg">
<path fill-rule="evenodd" clip-rule="evenodd" d="M17.44 5.009V7.509H15.781V5.009H13.298V3.333H15.781V0.793H17.44V3.333H19.921V5.009H17.44ZM9.147 0.832C10.331 0.832 11.417 2.552 11.417 3.977C11.417 5.27 10.303 6.074 9.372 6.805C8.463 7.519 8.29 7.817 8.29 8.424C8.29 8.941 9.264 9.821 9.772 10.41C11.261 11.99 11.613 12.8 11.613 13.864C11.613 15.907 9.772 17.499 6.207 17.499C3.079 17.499 0 16.351 0 14.306C0 12.87 3.297 10.544 5.975 10.544C6.316 10.544 6.629 10.54 6.952 10.54C6.524 10.119 6.184 9.619 6.184 8.988C6.184 8.613 6.303 8.271 6.471 7.951C6.3 7.965 6.127 8.009 5.949 8.009C3.379 8.009 1.658 7.14 1.658 3.981C1.658 1.755 4.034 0 6.56 0C7.969 0 12.194 0 12.194 0L10.933 0.832H9.147ZM6.571 11.067C4.408 11.041 2.473 12.39 2.473 14.008C2.473 15.659 4.034 16.593 6.196 16.593C9.236 16.593 10.087 15.745 10.087 14.093C10.087 13.894 10.062 13.698 10.019 13.512C9.781 12.575 9.147 12.111 7.973 11.291C7.544 11.153 7.076 11.072 6.571 11.067ZM8.937 3.96C8.686 2.048 7.306 0.51 6.387 0.467C4.405 0.422 3.432 1.888 3.684 3.803C3.933 5.718 5.312 7.306 6.764 7.349C8.215 7.392 9.187 5.877 8.937 3.96Z" fill="#999999"/>
</svg>
