<svg width="21" height="21" viewBox="0 0 21 21" fill="none" xmlns="http://www.w3.org/2000/svg">
<path fill-rule="evenodd" clip-rule="evenodd" d="M18.44 7.009V9.509H16.781V7.009H14.298V5.333H16.781V2.793H18.44V5.333H20.921V7.009H18.44ZM10.147 2.832C11.331 2.832 12.417 4.552 12.417 5.977C12.417 7.27 11.303 8.074 10.372 8.805C9.463 9.519 9.29 9.817 9.29 10.424C9.29 10.941 10.264 11.821 10.772 12.41C12.261 13.99 12.613 14.8 12.613 15.864C12.613 17.907 10.772 19.499 7.207 19.499C4.079 19.499 1 18.351 1 16.306C1 14.87 4.297 12.544 6.975 12.544C7.316 12.544 7.629 12.54 7.952 12.54C7.524 12.119 7.184 11.619 7.184 10.988C7.184 10.613 7.303 10.271 7.471 9.951C7.3 9.965 7.127 10.009 6.949 10.009C4.379 10.009 2.658 9.14 2.658 5.981C2.658 3.755 5.034 2 7.56 2C8.969 2 13.194 2 13.194 2L11.933 2.832H10.147ZM7.571 13.067C5.408 13.041 3.473 14.39 3.473 16.008C3.473 17.659 5.034 18.593 7.196 18.593C10.236 18.593 11.087 17.745 11.087 16.093C11.087 15.894 11.062 15.698 11.019 15.512C10.781 14.575 10.147 14.111 8.973 13.291C8.544 13.153 8.076 13.072 7.571 13.067ZM9.937 5.96C9.686 4.048 8.306 2.51 7.387 2.467C5.405 2.422 4.432 3.888 4.684 5.803C4.933 7.718 6.312 9.306 7.764 9.349C9.215 9.392 10.187 7.877 9.937 5.96Z" fill="#E74C3C"/>
</svg>
