<svg width="21" height="19" viewBox="0 0 21 19" fill="none" xmlns="http://www.w3.org/2000/svg">
<path fill-rule="evenodd" clip-rule="evenodd" d="M17.643 5.849V8.349H15.984V5.849H13.501V4.173H15.984V1.633H17.643V4.173H20.124V5.849H17.643ZM9.35 1.672C10.534 1.672 11.62 3.392 11.62 4.817C11.62 6.11 10.506 6.914 9.575 7.645C8.666 8.359 8.493 8.657 8.493 9.264C8.493 9.781 9.467 10.661 9.975 11.25C11.464 12.83 11.816 13.64 11.816 14.704C11.816 16.747 9.975 18.339 6.41 18.339C3.282 18.339 0.203003 17.191 0.203003 15.146C0.203003 13.71 3.5 11.384 6.178 11.384C6.519 11.384 6.832 11.38 7.155 11.38C6.727 10.959 6.387 10.459 6.387 9.828C6.387 9.453 6.506 9.111 6.674 8.791C6.503 8.805 6.33 8.849 6.152 8.849C3.582 8.849 1.861 7.98 1.861 4.821C1.861 2.595 4.237 0.84 6.763 0.84C8.172 0.84 12.397 0.84 12.397 0.84L11.136 1.672H9.35ZM6.774 11.907C4.611 11.881 2.676 13.23 2.676 14.848C2.676 16.499 4.237 17.433 6.399 17.433C9.439 17.433 10.29 16.585 10.29 14.933C10.29 14.734 10.265 14.538 10.222 14.352C9.984 13.415 9.35 12.951 8.176 12.131C7.747 11.993 7.279 11.912 6.774 11.907ZM9.14 4.8C8.889 2.888 7.509 1.35 6.59 1.307C4.608 1.262 3.635 2.728 3.887 4.643C4.136 6.558 5.515 8.146 6.967 8.189C8.418 8.232 9.39 6.717 9.14 4.8Z" fill="black"/>
</svg>
