<svg width="21" height="20" viewBox="0 0 21 20" fill="none" xmlns="http://www.w3.org/2000/svg">
<path fill-rule="evenodd" clip-rule="evenodd" d="M16.458 19.159V12.357C16.458 10.963 15.462 9.567 13.827 9.567C12.192 9.567 11.471 10.963 11.471 12.392V19.159H7.33V6.671H11.445V8.381C12.592 6.914 13.653 6.253 15.462 6.253C17.27 6.253 20.599 7.159 20.599 12.79V19.159H16.458ZM2.802 4.989C1.456 4.989 0.367004 4.4 0.367004 2.789C0.367004 1.577 1.456 0.589996 2.802 0.589996C4.147 0.589996 5.236 1.577 5.236 2.789C5.236 4.4 4.147 4.989 2.802 4.989ZM4.855 19.159H0.714004V6.671H4.855V19.159Z" fill="black"/>
</svg>
