<svg width="21" height="19" viewBox="0 0 21 19" fill="none" xmlns="http://www.w3.org/2000/svg">
<path fill-rule="evenodd" clip-rule="evenodd" d="M16.091 18.569V11.767C16.091 10.373 15.095 8.977 13.46 8.977C11.825 8.977 11.104 10.373 11.104 11.802V18.569H6.963V6.081H11.078V7.791C12.225 6.324 13.286 5.663 15.095 5.663C16.903 5.663 20.232 6.569 20.232 12.2V18.569H16.091ZM2.435 4.399C1.089 4.399 0 3.81 0 2.199C0 0.987 1.089 0 2.435 0C3.78 0 4.869 0.987 4.869 2.199C4.869 3.81 3.78 4.399 2.435 4.399ZM4.488 18.569H0.347V6.081H4.488V18.569Z" fill="#999999"/>
</svg>
