<svg width="21" height="21" viewBox="0 0 21 21" fill="none" xmlns="http://www.w3.org/2000/svg">
<path fill-rule="evenodd" clip-rule="evenodd" d="M16.091 19.569V12.767C16.091 11.373 15.095 9.977 13.46 9.977C11.825 9.977 11.104 11.373 11.104 12.802V19.569H6.963V7.081H11.078V8.791C12.225 7.324 13.286 6.663 15.095 6.663C16.903 6.663 20.232 7.569 20.232 13.2V19.569H16.091ZM2.435 5.399C1.089 5.399 0 4.81 0 3.199C0 1.987 1.089 1 2.435 1C3.78 1 4.869 1.987 4.869 3.199C4.869 4.81 3.78 5.399 2.435 5.399ZM4.488 19.569H0.347V7.081H4.488V19.569Z" fill="#E74C3C"/>
</svg>
