<svg width="20" height="20" viewBox="0 0 20 20" fill="none" xmlns="http://www.w3.org/2000/svg">
<path fill-rule="evenodd" clip-rule="evenodd" d="M19.864 19.751H16.214C16.216 19.672 16.22 19.597 16.22 19.519C16.22 10.744 8.956 3.501 0.153 3.501C0.103 3.501 0.051 3.505 0 3.505V0.05C0.051 0.05 0.103 0 0.153 0C10.997 0 19.87 8.709 19.87 19.519C19.87 19.597 19.865 19.672 19.864 19.751ZM2.9 13.939C4.502 13.939 5.799 15.235 5.799 17.46C5.799 18.43 4.502 19.721 2.9 19.721C1.299 19.721 0 18.43 0 17.46C0 15.235 1.299 13.939 2.9 13.939ZM0.153 10.138C0.103 10.138 0.051 10.144 0 10.146V6.456C0.051 6.455 0.103 6.447 0.153 6.447C7.297 6.447 13.239 12.397 13.239 19.519C13.239 19.598 13.229 19.672 13.227 19.751H9.526C9.528 19.672 9.537 19.598 9.537 19.519C9.537 14.432 5.257 10.138 0.153 10.138Z" fill="#999999"/>
</svg>
