<svg width="21" height="20" viewBox="0 0 21 20" fill="none" xmlns="http://www.w3.org/2000/svg">
<path fill-rule="evenodd" clip-rule="evenodd" d="M20.301 19.991H16.651C16.653 19.912 16.657 19.837 16.657 19.759C16.657 10.984 9.39301 3.741 0.590012 3.741C0.540012 3.741 0.488012 3.745 0.437012 3.745V0.289998C0.488012 0.289998 0.540012 0.239998 0.590012 0.239998C11.434 0.239998 20.307 8.949 20.307 19.759C20.307 19.837 20.302 19.912 20.301 19.991ZM3.33701 14.179C4.93901 14.179 6.23601 15.475 6.23601 17.7C6.23601 18.67 4.93901 19.961 3.33701 19.961C1.73601 19.961 0.437012 18.67 0.437012 17.7C0.437012 15.475 1.73601 14.179 3.33701 14.179ZM0.590012 10.378C0.540012 10.378 0.488012 10.384 0.437012 10.386V6.696C0.488012 6.695 0.540012 6.687 0.590012 6.687C7.73401 6.687 13.676 12.637 13.676 19.759C13.676 19.838 13.666 19.912 13.664 19.991H9.96301C9.96501 19.912 9.97401 19.838 9.97401 19.759C9.97401 14.672 5.69401 10.378 0.590012 10.378Z" fill="black"/>
</svg>
