<svg width="21" height="21" viewBox="0 0 21 21" fill="none" xmlns="http://www.w3.org/2000/svg">
<path fill-rule="evenodd" clip-rule="evenodd" d="M20.864 20.751H17.214C17.216 20.672 17.22 20.597 17.22 20.519C17.22 11.744 9.956 4.501 1.153 4.501C1.103 4.501 1.051 4.505 1 4.505V1.05C1.051 1.05 1.103 1 1.153 1C11.997 1 20.87 9.709 20.87 20.519C20.87 20.597 20.865 20.672 20.864 20.751ZM3.9 14.939C5.502 14.939 6.799 16.235 6.799 18.46C6.799 19.43 5.502 20.721 3.9 20.721C2.299 20.721 1 19.43 1 18.46C1 16.235 2.299 14.939 3.9 14.939ZM1.153 11.138C1.103 11.138 1.051 11.144 1 11.146V7.456C1.051 7.455 1.103 7.447 1.153 7.447C8.297 7.447 14.239 13.397 14.239 20.519C14.239 20.598 14.229 20.672 14.227 20.751H10.526C10.528 20.672 10.537 20.598 10.537 20.519C10.537 15.432 6.257 11.138 1.153 11.138Z" fill="#E74C3C"/>
</svg>
