<svg width="21" height="21" viewBox="0 0 21 21" fill="none" xmlns="http://www.w3.org/2000/svg">
<path fill-rule="evenodd" clip-rule="evenodd" d="M19.444 12.246C19.905 11.81 19.995 11.369 19.995 11.07C19.995 6.85 16.285 2.241 10.685 2.241C10.226 2.241 9.78 2.286 9.341 2.353C8.457 1.594 7.312 1 6.058 1C3.265 1 1 3.173 1 6.7C1 7.126 1.382 8.179 2.019 9.029C1.889 9.638 1.816 10.268 1.816 11.07C1.816 15.839 5.786 20.06 10.685 20.06C11.314 20.06 11.928 20.83 12.655 19.868C13.408 20.647 15.125 20.887 15.838 20.887C18.631 20.887 20.896 18.613 20.896 15.806C20.896 14.418 20.342 13.163 19.444 12.246ZM14.823 15.005C14.474 15.503 13.963 15.895 13.289 16.176C12.616 16.46 11.819 16.6 10.896 16.6C9.789 16.6 8.877 16.407 8.158 16.022C7.649 15.745 7.234 15.373 6.915 15.8C7.425 14.446 6.437 14.85 6.437 13.557C6.437 13.302 6.785 13.085 6.724 13.4C6.915 12.722 7.159 12.631 7.454 12.631C7.694 12.631 7.897 12.701 8.062 12.844C8.229 13.76 8.37 13.194 8.487 13.473C8.63 13.801 8.783 14.078 8.95 14.298C9.115 14.519 9.349 14.702 9.649 14.845C9.95 15.78 10.346 15.062 10.834 15.062C11.705 15.062 12.054 15.07 12.475 14.627C12.895 14.338 13.106 14.66 13.106 13.542C13.106 13.199 12.993 13.09 12.766 12.706C12.845 12.492 12.246 12.329 11.886 12.215C11.725 12.103 11.047 12.72 10.444 11.855C9.639 11.681 8.964 11.477 8.422 11.245C7.879 11.011 7.448 10.694 7.129 10.291C6.811 9.887 6.652 9.388 6.652 8.791C6.652 8.22 6.819 7.715 7.157 7.272C7.493 6.83 7.979 6.489 8.618 6.251C9.255 6.013 10.004 5.895 10.866 5.895C11.985 5.895 12.149 6.63 12.651 6.131C13.153 6.289 14.145 6.498 13.901 6.759C14.232 7.021 14.475 7.296 14.628 7.582C14.781 7.87 14.857 8.15 14.857 8.422C14.857 8.672 14.762 8.898 15.165 9.097C14.38 9.296 14.141 9.398 13.856 9.398C14.405 9.398 13.398 9.338 13.263 9.217C13.128 9.097 12.981 9.1 12.823 8.628C12.619 8.237 12.375 8.22 12.089 7.714C11.803 7.494 11.345 7.385 10.712 7.385C10.127 7.385 9.653 7.502 9.294 7.741C8.934 8.68 8.754 8.264 8.754 8.6C8.754 8.806 8.816 9.76 8.939 9.137C9.06 9.288 9.229 9.416 9.443 9.524C9.657 9.632 9.874 9.717 10.092 9.779C10.312 9.839 10.674 10.19 11.179 10.046C11.811 10.184 12.383 10.335 12.895 10.5C13.408 10.664 13.843 10.865 14.203 11.097C15.085 11.334 14.843 11.632 15.045 12.83C15.246 12.351 15.347 12.794 15.347 13.318C15.347 14.33 15.172 14.506 14.823 15.005Z" fill="#E74C3C"/>
</svg>
