<svg width="20" height="20" viewBox="0 0 20 20" fill="none" xmlns="http://www.w3.org/2000/svg">
<path fill-rule="evenodd" clip-rule="evenodd" d="M18.444 11.246C18.905 10.81 18.995 10.369 18.995 10.07C18.995 5.85 15.285 1.241 9.685 1.241C9.226 1.241 8.78 1.286 8.341 1.353C7.457 0.594 6.312 0 5.058 0C2.265 0 0 2.173 0 5.7C0 6.126 0.382 7.179 1.019 8.029C0.889 8.638 0.816 9.268 0.816 10.07C0.816 14.839 4.786 19.06 9.685 19.06C10.314 19.06 10.928 19.83 11.655 18.868C12.408 19.647 14.125 19.887 14.838 19.887C17.631 19.887 19.896 17.613 19.896 14.806C19.896 13.418 19.342 12.163 18.444 11.246ZM13.823 14.005C13.474 14.503 12.963 14.895 12.289 15.176C11.616 15.46 10.819 15.6 9.896 15.6C8.789 15.6 7.877 15.407 7.158 15.022C6.649 14.745 6.234 14.373 5.915 14.8C6.425 13.446 5.437 13.85 5.437 12.557C5.437 12.302 5.785 12.085 5.724 12.4C5.915 11.722 6.159 11.631 6.454 11.631C6.694 11.631 6.897 11.701 7.062 11.844C7.229 12.76 7.37 12.194 7.487 12.473C7.63 12.801 7.783 13.078 7.95 13.298C8.115 13.519 8.349 13.702 8.649 13.845C8.95 14.78 9.346 14.062 9.834 14.062C10.705 14.062 11.054 14.07 11.475 13.627C11.895 13.338 12.106 13.66 12.106 12.542C12.106 12.199 11.993 12.09 11.766 11.706C11.845 11.492 11.246 11.329 10.886 11.215C10.725 11.103 10.047 11.72 9.444 10.855C8.639 10.681 7.964 10.477 7.422 10.245C6.879 10.011 6.448 9.694 6.129 9.291C5.811 8.887 5.652 8.388 5.652 7.791C5.652 7.22 5.819 6.715 6.157 6.272C6.493 5.83 6.979 5.489 7.618 5.251C8.255 5.013 9.004 4.895 9.866 4.895C10.985 4.895 11.149 5.63 11.651 5.131C12.153 5.289 13.145 5.498 12.901 5.759C13.232 6.021 13.475 6.296 13.628 6.582C13.781 6.87 13.857 7.15 13.857 7.422C13.857 7.672 13.762 7.898 14.165 8.097C13.38 8.296 13.141 8.398 12.856 8.398C13.405 8.398 12.398 8.338 12.263 8.217C12.128 8.097 11.981 8.1 11.823 7.628C11.619 7.237 11.375 7.22 11.089 6.714C10.803 6.494 10.345 6.385 9.712 6.385C9.127 6.385 8.653 6.502 8.294 6.741C7.934 7.68 7.754 7.264 7.754 7.6C7.754 7.806 7.816 8.76 7.939 8.137C8.06 8.288 8.229 8.416 8.443 8.524C8.657 8.632 8.874 8.717 9.092 8.779C9.312 8.839 9.674 9.19 10.179 9.046C10.811 9.184 11.383 9.335 11.895 9.5C12.408 9.664 12.843 9.865 13.203 10.097C14.085 10.334 13.843 10.632 14.045 11.83C14.246 11.351 14.347 11.794 14.347 12.318C14.347 13.33 14.172 13.506 13.823 14.005Z" fill="#999999"/>
</svg>
