<svg width="21" height="20" viewBox="0 0 21 20" fill="none" xmlns="http://www.w3.org/2000/svg">
<path fill-rule="evenodd" clip-rule="evenodd" d="M18.939 11.346C19.4 10.91 19.49 10.469 19.49 10.17C19.49 5.95001 15.78 1.34101 10.18 1.34101C9.721 1.34101 9.275 1.38601 8.836 1.45301C7.952 0.694006 6.807 0.100006 5.553 0.100006C2.76 0.100006 0.494995 2.27301 0.494995 5.80001C0.494995 6.22601 0.876995 7.27901 1.514 8.12901C1.384 8.73801 1.311 9.36801 1.311 10.17C1.311 14.939 5.281 19.16 10.18 19.16C10.809 19.16 11.423 19.93 12.15 18.968C12.903 19.747 14.62 19.987 15.333 19.987C18.126 19.987 20.391 17.713 20.391 14.906C20.391 13.518 19.837 12.263 18.939 11.346ZM14.318 14.105C13.969 14.603 13.458 14.995 12.784 15.276C12.111 15.56 11.314 15.7 10.391 15.7C9.284 15.7 8.372 15.507 7.653 15.122C7.144 14.845 6.729 14.473 6.41 14.9C6.92 13.546 5.932 13.95 5.932 12.657C5.932 12.402 6.28 12.185 6.219 12.5C6.41 11.822 6.654 11.731 6.949 11.731C7.189 11.731 7.392 11.801 7.557 11.944C7.724 12.86 7.865 12.294 7.982 12.573C8.125 12.901 8.27799 13.178 8.44499 13.398C8.60999 13.619 8.844 13.802 9.144 13.945C9.445 14.88 9.841 14.162 10.329 14.162C11.2 14.162 11.549 14.17 11.97 13.727C12.39 13.438 12.601 13.76 12.601 12.642C12.601 12.299 12.488 12.19 12.261 11.806C12.34 11.592 11.741 11.429 11.381 11.315C11.22 11.203 10.542 11.82 9.939 10.955C9.134 10.781 8.459 10.577 7.917 10.345C7.374 10.111 6.943 9.79401 6.624 9.39101C6.306 8.98701 6.147 8.48801 6.147 7.89101C6.147 7.32001 6.314 6.81501 6.652 6.37201C6.988 5.93001 7.474 5.58901 8.113 5.35101C8.75 5.11301 9.499 4.99501 10.361 4.99501C11.48 4.99501 11.644 5.73001 12.146 5.23101C12.648 5.38901 13.64 5.59801 13.396 5.85901C13.727 6.12101 13.97 6.39601 14.123 6.68201C14.276 6.97001 14.352 7.25001 14.352 7.52201C14.352 7.77201 14.257 7.99801 14.66 8.19701C13.875 8.39601 13.636 8.49801 13.351 8.49801C13.9 8.49801 12.893 8.43801 12.758 8.31701C12.623 8.19701 12.476 8.20001 12.318 7.72801C12.114 7.33701 11.87 7.32001 11.584 6.81401C11.298 6.59401 10.84 6.48501 10.207 6.48501C9.622 6.48501 9.14799 6.60201 8.78899 6.84101C8.42899 7.78001 8.24899 7.36401 8.24899 7.70001C8.24899 7.90601 8.311 8.86001 8.434 8.23701C8.555 8.38801 8.72399 8.51601 8.93799 8.62401C9.15199 8.73201 9.369 8.81701 9.587 8.87901C9.807 8.93901 10.169 9.29001 10.674 9.14601C11.306 9.28401 11.878 9.43501 12.39 9.60001C12.903 9.76401 13.338 9.96501 13.698 10.197C14.58 10.434 14.338 10.732 14.54 11.93C14.741 11.451 14.842 11.894 14.842 12.418C14.842 13.43 14.667 13.606 14.318 14.105Z" fill="black"/>
</svg>
