<svg width="13" height="20" viewBox="0 0 13 20" fill="none" xmlns="http://www.w3.org/2000/svg">
<path fill-rule="evenodd" clip-rule="evenodd" d="M9.275 16.612C7.57 16.612 6.914 15.28 6.914 14.253C6.914 13.797 6.914 11.305 6.914 8.257H10.783V4.893H6.914C6.914 2.267 6.914 0 6.914 0C6.914 0 5.117 0 3.752 0C3.752 4.238 0 5.044 0 5.044V8.22H2.491C2.491 8.22 2.491 12.882 2.491 15.355C2.491 17.832 4.765 19.887 7.532 19.887C10.298 19.887 12.314 18.782 12.314 18.782V15.509C12.314 15.509 10.98 16.612 9.275 16.612Z" fill="#999999"/>
</svg>
