<svg width="21" height="21" viewBox="0 0 21 21" fill="none" xmlns="http://www.w3.org/2000/svg">
<path fill-rule="evenodd" clip-rule="evenodd" d="M13.275 17.612C11.57 17.612 10.914 16.28 10.914 15.253C10.914 14.797 10.914 12.305 10.914 9.257H14.783V5.893H10.914C10.914 3.267 10.914 1 10.914 1C10.914 1 9.117 1 7.752 1C7.752 5.238 4 6.044 4 6.044V9.22H6.491C6.491 9.22 6.491 13.882 6.491 16.355C6.491 18.832 8.765 20.887 11.532 20.887C14.298 20.887 16.314 19.782 16.314 19.782V16.509C16.314 16.509 14.98 17.612 13.275 17.612Z" fill="#E74C3C"/>
</svg>
