<svg width="12" height="20" viewBox="0 0 12 20" fill="none" xmlns="http://www.w3.org/2000/svg">
<g clip-path="url(#clip0_15_17)">
<path fill-rule="evenodd" clip-rule="evenodd" d="M9.66099 16.712C7.95599 16.712 7.29999 15.38 7.29999 14.353C7.29999 13.897 7.29999 11.405 7.29999 8.35701H11.169V4.99301H7.29999C7.29999 2.36701 7.29999 0.100006 7.29999 0.100006C7.29999 0.100006 5.50299 0.100006 4.13799 0.100006C4.13799 4.33801 0.385986 5.14401 0.385986 5.14401V8.32001H2.87699C2.87699 8.32001 2.87699 12.982 2.87699 15.455C2.87699 17.932 5.15099 19.987 7.91799 19.987C10.684 19.987 12.7 18.882 12.7 18.882V15.609C12.7 15.609 11.366 16.712 9.66099 16.712Z" fill="black"/>
</g>
<defs>
<clipPath id="clip0_15_17">
<rect width="12" height="20" fill="white"/>
</clipPath>
</defs>
</svg>
