<svg width="20" height="17" viewBox="0 0 20 17" fill="none" xmlns="http://www.w3.org/2000/svg">
<path fill-rule="evenodd" clip-rule="evenodd" d="M19.895 2.604C19.56 2.267 18.555 2.639 17.619 2.731C18.22 2.405 19.109 1.34 19.329 0.49C18.751 0.864 18.054 1.404 16.769 1.404C16.769 1.404 16.769 1.404 16.769 1.406C16.022 0.622 14.969 0 13.803 0C11.536 0 9.88 1.977 9.88 4.254C9.88 4.569 9.916 4.878 9.983 5.174H9.982C6.908 5.714 3.454 3.388 1.339 0.739C0.095 2.903 1.172 5.465 2.585 6.343C2.101 6.38 1.211 6.288 0.792 5.877C0.764 7.313 2.324 9.216 3.958 9.907C3.476 10.167 2.621 10.714 2.249 10.154C2.614 11.251 4.07 12.836 5.918 12.836C5.259 13.6 2.781 14.99 0 14.548C1.888 15.703 4.091 16.37 7.014 16.37C13.043 16.37 18.47 10.981 18.193 4.329C18.192 4.321 18.192 4.314 18.191 4.305C18.192 4.288 18.193 4.271 18.193 4.254C18.193 4.234 18.191 4.213 18.191 4.193C18.794 3.779 19.317 3.244 19.895 2.604Z" fill="#999999"/>
</svg>
