<svg width="21" height="21" viewBox="0 0 21 21" fill="none" xmlns="http://www.w3.org/2000/svg">
<path fill-rule="evenodd" clip-rule="evenodd" d="M20.895 4.604C20.56 4.267 19.555 4.639 18.619 4.731C19.22 4.405 20.109 3.34 20.329 2.49C19.751 2.864 19.054 3.404 17.769 3.404C17.769 3.404 17.769 3.404 17.769 3.406C17.022 2.622 15.969 2 14.803 2C12.536 2 10.88 3.977 10.88 6.254C10.88 6.569 10.916 6.878 10.983 7.174H10.982C7.908 7.714 4.454 5.388 2.339 2.739C1.095 4.903 2.172 7.465 3.585 8.343C3.101 8.38 2.211 8.288 1.792 7.877C1.764 9.313 3.324 11.216 4.958 11.907C4.476 12.167 3.621 12.714 3.249 12.154C3.614 13.251 5.07 14.836 6.918 14.836C6.259 15.6 3.781 16.99 1 16.548C2.888 17.703 5.091 18.37 8.014 18.37C14.043 18.37 19.47 12.981 19.193 6.329C19.192 6.321 19.192 6.314 19.191 6.305C19.192 6.288 19.193 6.271 19.193 6.254C19.193 6.234 19.191 6.213 19.191 6.193C19.794 5.779 20.317 5.244 20.895 4.604Z" fill="black"/>
</svg>
