<svg width="20" height="18" viewBox="0 0 20 18" fill="none" xmlns="http://www.w3.org/2000/svg">
<path fill-rule="evenodd" clip-rule="evenodd" d="M0 4.787C2.084 3.412 4.242 0.807 6.183 0.807C8.123 0.807 8.598 2.646 8.864 4.692C9.131 6.736 9.891 11.207 10.918 11.207C11.946 11.207 14.285 7.251 14.152 5.723C14.019 4.195 12.327 4.424 11.394 4.862C12.25 1.805 14.229 0 17.144 0C19.287 0 19.896 1.941 19.896 4.099C19.896 8.106 13.125 17.456 9.037 17.456C6.505 17.456 5.878 13.786 5.365 11.972C4.852 10.158 3.844 6.226 2.664 5.093C2.207 5.017 0.913 6.028 0.913 6.028L0 4.787Z" fill="#999999"/>
</svg>
