<svg width="21" height="21" viewBox="0 0 21 21" fill="none" xmlns="http://www.w3.org/2000/svg">
<path fill-rule="evenodd" clip-rule="evenodd" d="M1 6.787C3.084 5.412 5.242 2.807 7.183 2.807C9.123 2.807 9.598 4.646 9.864 6.692C10.131 8.736 10.891 13.207 11.918 13.207C12.946 13.207 15.285 9.251 15.152 7.723C15.019 6.195 13.327 6.424 12.394 6.862C13.25 3.805 15.229 2 18.144 2C20.287 2 20.896 3.941 20.896 6.099C20.896 10.106 14.125 19.456 10.037 19.456C7.505 19.456 6.878 15.786 6.365 13.972C5.852 12.158 4.844 8.226 3.664 7.093C3.207 7.017 1.913 8.028 1.913 8.028L1 6.787Z" fill="#E74C3C"/>
</svg>
