<svg width="21" height="19" viewBox="0 0 21 19" fill="none" xmlns="http://www.w3.org/2000/svg">
<path fill-rule="evenodd" clip-rule="evenodd" d="M0.286011 5.481C2.37001 4.106 4.52801 1.501 6.46901 1.501C8.40901 1.501 8.88401 3.34 9.15001 5.386C9.41701 7.43 10.177 11.901 11.204 11.901C12.232 11.901 14.571 7.945 14.438 6.417C14.305 4.889 12.613 5.118 11.68 5.556C12.536 2.499 14.515 0.694 17.43 0.694C19.573 0.694 20.182 2.635 20.182 4.793C20.182 8.8 13.411 18.15 9.32301 18.15C6.79101 18.15 6.16401 14.48 5.65101 12.666C5.13801 10.852 4.13001 6.92 2.95001 5.787C2.49301 5.711 1.19901 6.722 1.19901 6.722L0.286011 5.481Z" fill="black"/>
</svg>
